<svg width="2567" height="667" viewBox="0 0 2567 667" fill="none" xmlns="http://www.w3.org/2000/svg">
<path d="M827.588 445V394.5H905.088C931.755 394.5 951.588 389.333 964.588 379C977.921 368.333 984.588 350.833 984.588 326.5C984.588 304.833 978.421 288.5 966.088 277.5C953.755 266.5 934.755 261 909.088 261H827.588V211H910.588C931.921 211 951.088 213.5 968.088 218.5C985.088 223.5 999.588 230.833 1011.59 240.5C1023.59 250.167 1032.75 262.5 1039.09 277.5C1045.42 292.167 1048.59 309.167 1048.59 328.5C1048.59 353.833 1042.75 375.167 1031.09 392.5C1019.75 409.833 1002.75 423 980.088 432C957.755 440.667 929.921 445 896.588 445H827.588ZM786.088 541V211H849.088V541H786.088ZM1187.45 547.5C1157.45 547.5 1134.78 537.333 1119.45 517C1104.45 496.333 1096.95 465.167 1096.95 423.5V279.5H1160.45V416.5C1160.45 442.833 1164.45 462.5 1172.45 475.5C1180.45 488.5 1192.78 495 1209.45 495C1219.11 495 1227.61 492.667 1234.95 488C1242.28 483 1248.61 476.167 1253.95 467.5C1259.28 458.5 1263.45 448.167 1266.45 436.5C1269.78 424.833 1271.78 412 1272.45 398V279.5H1335.45V433.5V541H1283.45L1284.45 458.5H1275.45C1271.11 479.5 1264.95 496.5 1256.95 509.5C1249.28 522.5 1239.78 532.167 1228.45 538.5C1217.11 544.5 1203.45 547.5 1187.45 547.5ZM1406.61 541V375.5V279.5H1458.11L1456.61 359.5H1465.61C1470.28 340.167 1476.28 324.167 1483.61 311.5C1491.28 298.5 1500.61 288.833 1511.61 282.5C1522.61 276.167 1535.28 273 1549.61 273C1565.61 273 1578.78 276.667 1589.11 284C1599.44 291.333 1607.28 301.5 1612.61 314.5C1618.28 327.167 1621.78 342 1623.11 359H1631.11C1635.44 339.667 1641.61 323.667 1649.61 311C1657.94 298.333 1667.94 288.833 1679.61 282.5C1691.61 276.167 1704.78 273 1719.11 273C1733.11 273 1745.44 275.833 1756.11 281.5C1766.78 287.167 1775.61 295.5 1782.61 306.5C1789.94 317.167 1795.28 330.667 1798.61 347C1802.28 363.333 1804.11 382.167 1804.11 403.5V541H1740.61V411.5C1740.61 392.833 1738.94 377.333 1735.61 365C1732.61 352.667 1727.78 343.5 1721.11 337.5C1714.78 331.167 1706.44 328 1696.11 328C1684.44 328 1674.28 331.833 1665.61 339.5C1656.94 347.167 1650.11 358 1645.11 372C1640.11 385.667 1637.11 401.333 1636.11 419V541H1574.11V414.5C1574.11 395.167 1572.44 379.167 1569.11 366.5C1565.78 353.5 1560.78 343.833 1554.11 337.5C1547.44 331.167 1538.94 328 1528.61 328C1516.61 328 1506.28 332 1497.61 340C1489.28 348 1482.61 359 1477.61 373C1472.94 387 1470.28 402.667 1469.61 420V541H1406.61ZM1870.97 541V185.5H1932.97V385C1944.3 378 1955.13 370.333 1965.47 362C1975.8 353.333 1985.3 344.333 1993.97 335C2002.63 325.667 2010.3 316.333 2016.97 307C2023.63 297.333 2029.13 288.167 2033.47 279.5H2105.97C2100.63 292.5 2093.63 305.333 2084.97 318C2076.3 330.667 2066.13 342.333 2054.47 353C2043.13 363.667 2030.3 373 2015.97 381C2001.63 388.667 1986.3 394 1969.97 397V404C1990.63 401 2007.97 402 2021.97 407C2035.97 412 2047.8 419.5 2057.47 429.5C2067.13 439.5 2075.13 451.167 2081.47 464.5C2088.13 477.5 2094.3 490.833 2099.97 504.5L2112.97 541H2043.47L2035.47 517C2029.13 500.333 2022.47 485.667 2015.47 473C2008.8 460 2000.3 450 1989.97 443C1979.97 435.667 1966.97 432 1950.97 432H1932.97V541H1870.97ZM2159.05 541V279.5H2222.05V541H2159.05ZM2190.55 238.5C2177.89 238.5 2168.05 235.833 2161.05 230.5C2154.39 224.833 2151.05 216.833 2151.05 206.5C2151.05 196.167 2154.39 188.333 2161.05 183C2168.05 177.333 2177.89 174.5 2190.55 174.5C2203.89 174.5 2213.89 177.167 2220.55 182.5C2227.22 187.833 2230.55 195.833 2230.55 206.5C2230.55 216.833 2227.05 224.833 2220.05 230.5C2213.39 235.833 2203.55 238.5 2190.55 238.5ZM2292.84 541V381.5V279.5H2345.34L2343.84 359.5H2352.84C2357.51 339.833 2363.68 323.667 2371.34 311C2379.34 298.333 2389.51 288.833 2401.84 282.5C2414.18 276.167 2428.51 273 2444.84 273C2474.51 273 2497.01 283.5 2512.34 304.5C2528.01 325.5 2535.84 358 2535.84 402V541H2472.34V408.5C2472.34 380.167 2468.01 359.5 2459.34 346.5C2451.01 333.167 2438.51 326.5 2421.84 326.5C2407.84 326.5 2396.01 331 2386.34 340C2376.68 348.667 2369.18 360.333 2363.84 375C2358.84 389.333 2356.18 405.167 2355.84 422.5V541H2292.84Z" fill="white"/>
<path d="M566.667 192.273C537.233 177.539 497.633 201.839 466.667 233.539C438.269 199.546 405.495 169.462 369.2 144.073C372.533 121.2 384.481 100.466 402.6 86.1142C420.719 71.7627 443.639 64.8792 466.667 66.8725C475.507 66.8725 483.986 63.3606 490.237 57.1094C496.488 50.8582 500 42.3797 500 33.5392C500 24.6986 496.488 16.2202 490.237 9.96895C483.986 3.71774 475.507 0.205846 466.667 0.205846C426.224 -1.86344 386.539 11.7311 355.86 38.164C325.181 64.5968 305.867 101.835 301.933 142.139C263.571 167.331 229.21 198.141 200 233.539C169.033 201.839 129.433 177.539 100 192.273C51.1667 216.673 0 481.339 0 500.206C0 647.472 149.233 666.873 333.333 666.873C517.433 666.873 666.667 647.472 666.667 500.206C666.667 481.339 615.5 216.673 566.667 192.273ZM280 500.206H120C116.492 500.519 112.969 499.804 109.86 498.148C106.752 496.493 104.193 493.967 102.496 490.881C100.8 487.795 100.038 484.281 100.305 480.77C100.572 477.258 101.856 473.9 104 471.106L184 374.139C185.993 371.855 188.452 370.024 191.212 368.769C193.972 367.514 196.968 366.865 200 366.865C203.032 366.865 206.028 367.514 208.788 368.769C211.548 370.024 214.007 371.855 216 374.139L296 471.106C298.144 473.9 299.428 477.258 299.695 480.77C299.962 484.281 299.2 487.795 297.504 490.881C295.807 493.967 293.248 496.493 290.14 498.148C287.031 499.804 283.508 500.519 280 500.206ZM546.667 500.206H386.667C383.159 500.519 379.635 499.804 376.527 498.148C373.419 496.493 370.86 493.967 369.163 490.881C367.466 487.795 366.705 484.281 366.972 480.77C367.239 477.258 368.523 473.9 370.667 471.106L450.667 374.139C452.66 371.855 455.119 370.024 457.879 368.769C460.638 367.514 463.635 366.865 466.667 366.865C469.698 366.865 472.695 367.514 475.455 368.769C478.214 370.024 480.674 371.855 482.667 374.139L562.667 471.106C564.811 473.9 566.094 477.258 566.361 480.77C566.628 484.281 565.867 487.795 564.17 490.881C562.473 493.967 559.914 496.493 556.806 498.148C553.698 499.804 550.175 500.519 546.667 500.206Z" fill="#FF7647"/>
</svg>
