<svg width="667" height="667" viewBox="0 0 667 667" fill="none" xmlns="http://www.w3.org/2000/svg">
<path d="M566.667 192.273C537.233 177.539 497.633 201.839 466.667 233.539C438.269 199.546 405.495 169.462 369.2 144.073C372.533 121.2 384.481 100.466 402.6 86.1142C420.719 71.7627 443.639 64.8792 466.667 66.8725C475.507 66.8725 483.986 63.3606 490.237 57.1094C496.488 50.8582 500 42.3797 500 33.5392C500 24.6986 496.488 16.2202 490.237 9.96895C483.986 3.71774 475.507 0.205846 466.667 0.205846C426.224 -1.86344 386.539 11.7311 355.86 38.164C325.181 64.5968 305.867 101.835 301.933 142.139C263.571 167.331 229.21 198.141 200 233.539C169.033 201.839 129.433 177.539 100 192.273C51.1667 216.673 0 481.339 0 500.206C0 647.472 149.233 666.873 333.333 666.873C517.433 666.873 666.667 647.472 666.667 500.206C666.667 481.339 615.5 216.673 566.667 192.273ZM280 500.206H120C116.492 500.519 112.969 499.804 109.86 498.148C106.752 496.493 104.193 493.967 102.496 490.881C100.8 487.795 100.038 484.281 100.305 480.77C100.572 477.258 101.856 473.9 104 471.106L184 374.139C185.993 371.855 188.452 370.024 191.212 368.769C193.972 367.514 196.968 366.865 200 366.865C203.032 366.865 206.028 367.514 208.788 368.769C211.548 370.024 214.007 371.855 216 374.139L296 471.106C298.144 473.9 299.428 477.258 299.695 480.77C299.962 484.281 299.2 487.795 297.504 490.881C295.807 493.967 293.248 496.493 290.14 498.148C287.031 499.804 283.508 500.519 280 500.206ZM546.667 500.206H386.667C383.159 500.519 379.635 499.804 376.527 498.148C373.419 496.493 370.86 493.967 369.163 490.881C367.466 487.795 366.705 484.281 366.972 480.77C367.239 477.258 368.523 473.9 370.667 471.106L450.667 374.139C452.66 371.855 455.119 370.024 457.879 368.769C460.638 367.514 463.635 366.865 466.667 366.865C469.698 366.865 472.695 367.514 475.455 368.769C478.214 370.024 480.674 371.855 482.667 374.139L562.667 471.106C564.811 473.9 566.094 477.258 566.361 480.77C566.628 484.281 565.867 487.795 564.17 490.881C562.473 493.967 559.914 496.493 556.806 498.148C553.698 499.804 550.175 500.519 546.667 500.206Z" fill="white"/>
</svg>
